<svg width="136" height="48" viewBox="0 0 136 48" fill="none" xmlns="http://www.w3.org/2000/svg">
<rect width="136" height="48" rx="4" fill="#5EB9B2"/>
<path d="M40 20.608V28.75C40.0001 29.5801 39.6824 30.3788 39.1123 30.9822C38.5422 31.5856 37.7628 31.948 36.934 31.995L36.75 32H23.25C22.4199 32.0001 21.6212 31.6824 21.0178 31.1123C20.4144 30.5422 20.052 29.7628 20.005 28.934L20 28.75V20.608L29.652 25.664C29.7594 25.7202 29.8788 25.7496 30 25.7496C30.1212 25.7496 30.2406 25.7202 30.348 25.664L40 20.608ZM23.25 16H36.75C37.5556 15.9999 38.3325 16.299 38.93 16.8393C39.5276 17.3795 39.9032 18.1225 39.984 18.924L30 24.154L20.016 18.924C20.0935 18.1543 20.443 17.4375 21.0017 16.9025C21.5605 16.3674 22.2917 16.0492 23.064 16.005L23.25 16H36.75H23.25Z" fill="white"/>
<path d="M47.008 30V19.696H54.192V21.056H48.752V24.176H53.6V25.52H48.752V28.656H54.192V30H47.008ZM56.6849 30V22.416H58.2849L58.3649 23.216C58.7382 22.9173 59.1489 22.6827 59.5969 22.512C60.0449 22.3413 60.5249 22.256 61.0369 22.256C61.5809 22.256 62.0022 22.3467 62.3009 22.528C62.6102 22.6987 62.8449 22.9387 63.0049 23.248C63.3569 22.96 63.7622 22.7253 64.2209 22.544C64.6795 22.352 65.2289 22.256 65.8689 22.256C66.7435 22.256 67.3889 22.48 67.8049 22.928C68.2209 23.376 68.4289 24.064 68.4289 24.992V30H66.7169V25.168C66.7169 24.5813 66.5942 24.1707 66.3489 23.936C66.1035 23.7013 65.7035 23.584 65.1489 23.584C64.7862 23.584 64.4395 23.648 64.1089 23.776C63.7889 23.904 63.5115 24.096 63.2769 24.352C63.3089 24.4693 63.3302 24.592 63.3409 24.72C63.3515 24.848 63.3569 24.9867 63.3569 25.136V30H61.7409V25.184C61.7409 24.6293 61.6449 24.224 61.4529 23.968C61.2609 23.712 60.8982 23.584 60.3649 23.584C59.9915 23.584 59.6342 23.6747 59.2929 23.856C58.9622 24.0267 58.6635 24.2347 58.3969 24.48V30H56.6849ZM73.4016 30.16C72.9216 30.16 72.4736 30.0747 72.0576 29.904C71.6523 29.7333 71.327 29.4773 71.0816 29.136C70.8363 28.784 70.7136 28.352 70.7136 27.84C70.7136 27.1147 70.959 26.5333 71.4496 26.096C71.951 25.648 72.719 25.424 73.7536 25.424H76.1856V25.088C76.1856 24.7253 76.127 24.4373 76.0096 24.224C75.903 24.0107 75.7003 23.856 75.4016 23.76C75.1136 23.664 74.687 23.616 74.1216 23.616C73.2256 23.616 72.3883 23.7493 71.6096 24.016V22.72C71.951 22.5813 72.367 22.4693 72.8576 22.384C73.3483 22.2987 73.8763 22.256 74.4416 22.256C75.551 22.256 76.3936 22.48 76.9696 22.928C77.5563 23.376 77.8496 24.1067 77.8496 25.12V30H76.3616L76.2496 29.232C75.9403 29.5307 75.5563 29.76 75.0976 29.92C74.6496 30.08 74.0843 30.16 73.4016 30.16ZM73.8656 28.912C74.3883 28.912 74.8416 28.8267 75.2256 28.656C75.6203 28.4747 75.9403 28.2347 76.1856 27.936V26.608H73.7856C73.2736 26.608 72.9003 26.7093 72.6656 26.912C72.4416 27.104 72.3296 27.4027 72.3296 27.808C72.3296 28.2027 72.463 28.4853 72.7296 28.656C72.9963 28.8267 73.375 28.912 73.8656 28.912ZM81.3036 20.832V19.392H83.2076V20.832H81.3036ZM81.4476 30V23.744H80.2956L80.4556 22.416H83.1916V30H81.4476ZM87.9941 30.16C87.3755 30.16 86.9061 30.0107 86.5861 29.712C86.2661 29.4027 86.1061 28.896 86.1061 28.192V19.216H87.8501V28.032C87.8501 28.3307 87.9035 28.5333 88.0101 28.64C88.1168 28.7467 88.2768 28.8 88.4901 28.8C88.7461 28.8 88.9915 28.768 89.2261 28.704V29.968C89.0235 30.0427 88.8261 30.0907 88.6341 30.112C88.4528 30.144 88.2395 30.16 87.9941 30.16ZM96.038 30V19.696H97.83L101.094 26.368L104.342 19.696H106.134V30H104.406V22.528L101.622 28.224H100.566L97.766 22.528V30H96.038ZM112.867 30.16C111.545 30.16 110.521 29.8347 109.795 29.184C109.07 28.5333 108.707 27.536 108.707 26.192C108.707 24.976 109.017 24.016 109.635 23.312C110.254 22.608 111.193 22.256 112.451 22.256C113.603 22.256 114.467 22.56 115.043 23.168C115.63 23.7653 115.923 24.5387 115.923 25.488V26.896H110.371C110.457 27.632 110.723 28.1387 111.171 28.416C111.619 28.6933 112.302 28.832 113.219 28.832C113.603 28.832 113.998 28.7947 114.403 28.72C114.809 28.6453 115.161 28.5493 115.459 28.432V29.712C115.118 29.8613 114.723 29.9733 114.275 30.048C113.838 30.1227 113.369 30.16 112.867 30.16ZM110.371 25.76H114.387V25.232C114.387 24.7093 114.243 24.304 113.955 24.016C113.667 23.7173 113.182 23.568 112.499 23.568C111.689 23.568 111.129 23.744 110.819 24.096C110.521 24.448 110.371 25.0027 110.371 25.76Z" fill="white"/>
</svg>
