<svg width="159" height="159" viewBox="0 0 159 159" fill="none" xmlns="http://www.w3.org/2000/svg">
<mask id="mask0" mask-type="alpha" maskUnits="userSpaceOnUse" x="0" y="0" width="159" height="159">
<circle cx="79.5" cy="79.5" r="79.5" fill="#C4C4C4"/>
</mask>
<g mask="url(#mask0)">
<line x1="6.5" y1="-163" x2="6.49997" y2="449" stroke="#5EB9B2" stroke-width="3"/>
<line x1="76.5" y1="-163" x2="76.5" y2="449" stroke="#5EB9B2" stroke-width="3"/>
<line x1="46.5" y1="-163" x2="46.5" y2="449" stroke="#5EB9B2" stroke-width="3"/>
<line x1="66.5" y1="-163" x2="66.5" y2="449" stroke="#5EB9B2" stroke-width="3"/>
<line x1="56.5" y1="-163" x2="56.5" y2="449" stroke="#5EB9B2" stroke-width="3"/>
<line x1="26.5" y1="-163" x2="26.5" y2="449" stroke="#5EB9B2" stroke-width="3"/>
<line x1="36.5" y1="-163" x2="36.5" y2="449" stroke="#5EB9B2" stroke-width="3"/>
<line x1="16.5" y1="-163" x2="16.5" y2="449" stroke="#5EB9B2" stroke-width="3"/>
<line x1="86.5" y1="-163" x2="86.5" y2="449" stroke="#5EB9B2" stroke-width="3"/>
<line x1="96.5" y1="-163" x2="96.5" y2="449" stroke="#5EB9B2" stroke-width="3"/>
<line x1="136.5" y1="-163" x2="136.5" y2="449" stroke="#5EB9B2" stroke-width="3"/>
<line x1="156.5" y1="-163" x2="156.5" y2="449" stroke="#5EB9B2" stroke-width="3"/>
<line x1="146.5" y1="-163" x2="146.5" y2="449" stroke="#5EB9B2" stroke-width="3"/>
<line x1="116.5" y1="-163" x2="116.5" y2="449" stroke="#5EB9B2" stroke-width="3"/>
<line x1="126.5" y1="-163" x2="126.5" y2="449" stroke="#5EB9B2" stroke-width="3"/>
<line x1="106.5" y1="-163" x2="106.5" y2="449" stroke="#5EB9B2" stroke-width="3"/>
</g>
</svg>
