<svg width="166" height="205" viewBox="0 0 166 205" fill="none" xmlns="http://www.w3.org/2000/svg">
<path d="M0.391602 11.3339H36.3916V190.834L0.391602 193.334V11.3339Z" fill="url(#paint0_linear)"/>
<path d="M64.8916 11.3339H100.392V193.334L63.3916 190.334L64.8916 11.3339Z" fill="url(#paint1_linear)"/>
<path d="M129.892 11.3339H165.392V193.334L128.392 190.334L129.892 11.3339Z" fill="url(#paint2_linear)"/>
<path d="M0.391602 11.3339L36.2205 11.3339L100.892 193.334L63.3917 190.334L0.391602 11.3339Z" fill="url(#paint3_linear)"/>
<path d="M64.3916 114.834V85.5654H165.392V114.834H64.3916Z" fill="url(#paint4_linear)"/>
<path d="M0.391602 11.3339L36.2205 11.3339L100.892 193.334L63.3917 190.334L0.391602 11.3339Z" fill="url(#paint5_linear)"/>
<defs>
<linearGradient id="paint0_linear" x1="18.3916" y1="11.3339" x2="18.3916" y2="193.334" gradientUnits="userSpaceOnUse">
<stop stop-color="#116C6A"/>
<stop offset="1" stop-color="#29D9D5"/>
</linearGradient>
<linearGradient id="paint1_linear" x1="81.8916" y1="11.3339" x2="81.8916" y2="193.334" gradientUnits="userSpaceOnUse">
<stop stop-color="#29D9D5"/>
<stop offset="1" stop-color="#116C6A"/>
</linearGradient>
<linearGradient id="paint2_linear" x1="146.892" y1="11.3339" x2="146.892" y2="193.334" gradientUnits="userSpaceOnUse">
<stop stop-color="#29D9D5"/>
<stop offset="1" stop-color="#116C6A"/>
</linearGradient>
<linearGradient id="paint3_linear" x1="16.1853" y1="5.73638" x2="84.7064" y2="199.07" gradientUnits="userSpaceOnUse">
<stop offset="0.0520833" stop-color="#29D9D5"/>
<stop offset="0.505208" stop-color="#116C6A"/>
<stop offset="1" stop-color="#29D9D5"/>
</linearGradient>
<linearGradient id="paint4_linear" x1="49.2788" y1="102.737" x2="254.396" y2="102.737" gradientUnits="userSpaceOnUse">
<stop offset="0.078125" stop-color="#29D9D5"/>
<stop offset="0.322917" stop-color="#116C6A"/>
<stop offset="0.567708" stop-color="#29D9D5"/>
</linearGradient>
<linearGradient id="paint5_linear" x1="16.1853" y1="5.73638" x2="84.7064" y2="199.07" gradientUnits="userSpaceOnUse">
<stop offset="0.0520833" stop-color="#29D9D5"/>
<stop offset="0.505208" stop-color="#116C6A"/>
<stop offset="1" stop-color="#29D9D5"/>
</linearGradient>
</defs>
</svg>
